<?xml version="1.0" standalone="no"?><svg xmlns:xlink="http://www.w3.org/1999/xlink" xmlns="http://www.w3.org/2000/svg" viewBox="0 0 2100 999.9814593301435" preserveAspectRatio="xMaxYMax slice"><g transform="scale(1.7942583732057416)"><rect x="0" y="0" width="1226.1326" height="557.333" fill="#ffffff"/><path d="M 0 0 A 55.73 55.73 0 0 1  55.73 55.73 L 0 0 A 55.73 55.73 0 0 0 55.73 55.73" fill="#dcf9dc"/><path d="M 55.73 0 A 55.73 55.73 0 0 1  111.46 55.73 L 55.73 0 A 55.73 55.73 0 0 0 111.46 55.73" fill="#7ccb7c"/><path d="M 111.47 55.73 A 55.73 55.73 0 0 1  167.2 0 L 111.47 55.73 A 55.73 55.73 0 0 0 167.2 0" fill="#edf8ed"/><path d="M 390.13 55.73 A 55.73 55.73 0 0 1  445.86 0 L 390.13 55.73 A 55.73 55.73 0 0 0 445.86 0" fill="#f6fcf6"/><path d="M 445.87 55.73 A 55.73 55.73 0 0 1  501.6 0 L 445.87 55.73 A 55.73 55.73 0 0 0 501.6 0" fill="#d4f7d4"/><path d="M 501.6 55.73 A 55.73 55.73 0 0 1  557.33 0 L 501.6 55.73 A 55.73 55.73 0 0 0 557.33 0" fill="#bdf3bd"/><path d="M 613.07 55.73 A 55.73 55.73 0 0 1  668.8000000000001 0 L 613.07 55.73 A 55.73 55.73 0 0 0 668.8000000000001 0" fill="#6ce46c"/><path d="M 668.8 0 A 55.73 55.73 0 0 1  724.53 55.73 L 668.8 0 A 55.73 55.73 0 0 0 724.53 55.73" fill="#cbf5cb"/><path d="M 724.53 55.73 A 55.73 55.73 0 0 1  780.26 0 L 724.53 55.73 A 55.73 55.73 0 0 0 780.26 0" fill="#69c369"/><path d="M 780.27 0 A 55.73 55.73 0 0 1  836 55.73 L 780.27 0 A 55.73 55.73 0 0 0 836 55.73" fill="#c3f4c3"/><path d="M 836 0 A 55.73 55.73 0 0 1  891.73 55.73 L 836 0 A 55.73 55.73 0 0 0 891.73 55.73" fill="#b4f1b4"/><path d="M 891.73 0 A 55.73 55.73 0 0 1  947.46 55.73 L 891.73 0 A 55.73 55.73 0 0 0 947.46 55.73" fill="#1ba41b"/><path d="M 947.47 0 A 55.73 55.73 0 0 1  1003.2 55.73 L 947.47 0 A 55.73 55.73 0 0 0 1003.2 55.73" fill="#def2de"/><path d="M 1003.2 55.73 A 55.73 55.73 0 0 1  1058.93 0 L 1003.2 55.73 A 55.73 55.73 0 0 0 1058.93 0" fill="#75c875"/><path d="M 1114.67 0 A 55.73 55.73 0 0 1  1170.4 55.73 L 1114.67 0 A 55.73 55.73 0 0 0 1170.4 55.73" fill="#4bb74b"/><path d="M 1170.4 0 A 55.73 55.73 0 0 1  1226.13 55.73 L 1170.4 0 A 55.73 55.73 0 0 0 1226.13 55.73" fill="#62c062"/><path d="M 55.73 111.46 A 55.73 55.73 0 0 1  111.46 55.73 L 55.73 111.46 A 55.73 55.73 0 0 0 111.46 55.73" fill="#d1f7d1"/><path d="M 111.47 55.73 A 55.73 55.73 0 0 1  167.2 111.46 L 111.47 55.73 A 55.73 55.73 0 0 0 167.2 111.46" fill="#6de46d"/><path d="M 167.2 55.73 A 55.73 55.73 0 0 1  222.92999999999998 111.46 L 167.2 55.73 A 55.73 55.73 0 0 0 222.92999999999998 111.46" fill="#43dd43"/><path d="M 222.93 111.46 A 55.73 55.73 0 0 1  278.66 55.73 L 222.93 111.46 A 55.73 55.73 0 0 0 278.66 55.73" fill="#f9fef9"/><path d="M 334.4 55.73 A 55.73 55.73 0 0 1  390.13 111.46 L 334.4 55.73 A 55.73 55.73 0 0 0 390.13 111.46" fill="#059b05"/><path d="M 390.13 55.73 A 55.73 55.73 0 0 1  445.86 111.46 L 390.13 55.73 A 55.73 55.73 0 0 0 445.86 111.46" fill="#9bed9b"/><path d="M 445.87 55.73 A 55.73 55.73 0 0 1  501.6 111.46 L 445.87 55.73 A 55.73 55.73 0 0 0 501.6 111.46" fill="#f3fdf3"/><path d="M 501.6 111.46 A 55.73 55.73 0 0 1  557.33 55.73 L 501.6 111.46 A 55.73 55.73 0 0 0 557.33 55.73" fill="#6fe56f"/><path d="M 557.33 111.46 A 55.73 55.73 0 0 1  613.0600000000001 55.73 L 557.33 111.46 A 55.73 55.73 0 0 0 613.0600000000001 55.73" fill="#e6fae6"/><path d="M 613.07 111.46 A 55.73 55.73 0 0 1  668.8000000000001 55.73 L 613.07 111.46 A 55.73 55.73 0 0 0 668.8000000000001 55.73" fill="#50b950"/><path d="M 668.8 111.46 A 55.73 55.73 0 0 1  724.53 55.73 L 668.8 111.46 A 55.73 55.73 0 0 0 724.53 55.73" fill="#d3f7d3"/><path d="M 836 55.73 A 55.73 55.73 0 0 1  891.73 111.46 L 836 55.73 A 55.73 55.73 0 0 0 891.73 111.46" fill="#a9dda9"/><path d="M 947.47 111.46 A 55.73 55.73 0 0 1  1003.2 55.73 L 947.47 111.46 A 55.73 55.73 0 0 0 1003.2 55.73" fill="#61c061"/><path d="M 1003.2 55.73 A 55.73 55.73 0 0 1  1058.93 111.46 L 1003.2 55.73 A 55.73 55.73 0 0 0 1058.93 111.46" fill="#54bb54"/><path d="M 1058.93 55.73 A 55.73 55.73 0 0 1  1114.66 111.46 L 1058.93 55.73 A 55.73 55.73 0 0 0 1114.66 111.46" fill="#0e9e0e"/><path d="M 1114.67 55.73 A 55.73 55.73 0 0 1  1170.4 111.46 L 1114.67 55.73 A 55.73 55.73 0 0 0 1170.4 111.46" fill="#8aea8a"/><path d="M 1170.4 111.46 A 55.73 55.73 0 0 1  1226.13 55.73 L 1170.4 111.46 A 55.73 55.73 0 0 0 1226.13 55.73" fill="#80e880"/><path d="M 0 167.2 A 55.73 55.73 0 0 1  55.73 111.47 L 0 167.2 A 55.73 55.73 0 0 0 55.73 111.47" fill="#f0fcf0"/><path d="M 55.73 111.47 A 55.73 55.73 0 0 1  111.46 167.2 L 55.73 111.47 A 55.73 55.73 0 0 0 111.46 167.2" fill="#54bb54"/><path d="M 111.47 167.2 A 55.73 55.73 0 0 1  167.2 111.47 L 111.47 167.2 A 55.73 55.73 0 0 0 167.2 111.47" fill="#74e674"/><path d="M 167.2 111.47 A 55.73 55.73 0 0 1  222.92999999999998 167.2 L 167.2 111.47 A 55.73 55.73 0 0 0 222.92999999999998 167.2" fill="#52df52"/><path d="M 222.93 111.47 A 55.73 55.73 0 0 1  278.66 167.2 L 222.93 111.47 A 55.73 55.73 0 0 0 278.66 167.2" fill="#c1f4c1"/><path d="M 278.67 167.2 A 55.73 55.73 0 0 1  334.40000000000003 111.47 L 278.67 167.2 A 55.73 55.73 0 0 0 334.40000000000003 111.47" fill="#a8efa8"/><path d="M 334.4 167.2 A 55.73 55.73 0 0 1  390.13 111.47 L 334.4 167.2 A 55.73 55.73 0 0 0 390.13 111.47" fill="#eafbea"/><path d="M 445.87 167.2 A 55.73 55.73 0 0 1  501.6 111.47 L 445.87 167.2 A 55.73 55.73 0 0 0 501.6 111.47" fill="#11a011"/><path d="M 557.33 167.2 A 55.73 55.73 0 0 1  613.0600000000001 111.47 L 557.33 167.2 A 55.73 55.73 0 0 0 613.0600000000001 111.47" fill="#8aea8a"/><path d="M 891.73 111.47 A 55.73 55.73 0 0 1  947.46 167.2 L 891.73 111.47 A 55.73 55.73 0 0 0 947.46 167.2" fill="#e5fae5"/><path d="M 1058.93 167.2 A 55.73 55.73 0 0 1  1114.66 111.47 L 1058.93 167.2 A 55.73 55.73 0 0 0 1114.66 111.47" fill="#069c06"/><path d="M 1170.4 167.2 A 55.73 55.73 0 0 1  1226.13 111.47 L 1170.4 167.2 A 55.73 55.73 0 0 0 1226.13 111.47" fill="#61e261"/><path d="M 0 222.92999999999998 A 55.73 55.73 0 0 1  55.73 167.2 L 0 222.92999999999998 A 55.73 55.73 0 0 0 55.73 167.2" fill="#94eb94"/><path d="M 55.73 222.92999999999998 A 55.73 55.73 0 0 1  111.46 167.2 L 55.73 222.92999999999998 A 55.73 55.73 0 0 0 111.46 167.2" fill="#95d595"/><path d="M 111.47 222.92999999999998 A 55.73 55.73 0 0 1  167.2 167.2 L 111.47 222.92999999999998 A 55.73 55.73 0 0 0 167.2 167.2" fill="#bde4bd"/><path d="M 222.93 222.92999999999998 A 55.73 55.73 0 0 1  278.66 167.2 L 222.93 222.92999999999998 A 55.73 55.73 0 0 0 278.66 167.2" fill="#42dc42"/><path d="M 334.4 167.2 A 55.73 55.73 0 0 1  390.13 222.92999999999998 L 334.4 167.2 A 55.73 55.73 0 0 0 390.13 222.92999999999998" fill="#b9f2b9"/><path d="M 390.13 167.2 A 55.73 55.73 0 0 1  445.86 222.92999999999998 L 390.13 167.2 A 55.73 55.73 0 0 0 445.86 222.92999999999998" fill="#13a113"/><path d="M 445.87 167.2 A 55.73 55.73 0 0 1  501.6 222.92999999999998 L 445.87 167.2 A 55.73 55.73 0 0 0 501.6 222.92999999999998" fill="#23d723"/><path d="M 501.6 222.92999999999998 A 55.73 55.73 0 0 1  557.33 167.2 L 501.6 222.92999999999998 A 55.73 55.73 0 0 0 557.33 167.2" fill="#76e676"/><path d="M 557.33 222.92999999999998 A 55.73 55.73 0 0 1  613.0600000000001 167.2 L 557.33 222.92999999999998 A 55.73 55.73 0 0 0 613.0600000000001 167.2" fill="#d9f8d9"/><path d="M 613.07 222.92999999999998 A 55.73 55.73 0 0 1  668.8000000000001 167.2 L 613.07 222.92999999999998 A 55.73 55.73 0 0 0 668.8000000000001 167.2" fill="#f6fdf6"/><path d="M 668.8 167.2 A 55.73 55.73 0 0 1  724.53 222.92999999999998 L 668.8 167.2 A 55.73 55.73 0 0 0 724.53 222.92999999999998" fill="#7ccb7c"/><path d="M 724.53 222.92999999999998 A 55.73 55.73 0 0 1  780.26 167.2 L 724.53 222.92999999999998 A 55.73 55.73 0 0 0 780.26 167.2" fill="#2aaa2a"/><path d="M 780.27 167.2 A 55.73 55.73 0 0 1  836 222.92999999999998 L 780.27 167.2 A 55.73 55.73 0 0 0 836 222.92999999999998" fill="#d7f8d7"/><path d="M 1003.2 167.2 A 55.73 55.73 0 0 1  1058.93 222.92999999999998 L 1003.2 167.2 A 55.73 55.73 0 0 0 1058.93 222.92999999999998" fill="#11a011"/><path d="M 1058.93 222.92999999999998 A 55.73 55.73 0 0 1  1114.66 167.2 L 1058.93 222.92999999999998 A 55.73 55.73 0 0 0 1114.66 167.2" fill="#72e572"/><path d="M 1114.67 167.2 A 55.73 55.73 0 0 1  1170.4 222.92999999999998 L 1114.67 167.2 A 55.73 55.73 0 0 0 1170.4 222.92999999999998" fill="#56bb56"/><path d="M 111.47 278.66 A 55.73 55.73 0 0 1  167.2 222.93 L 111.47 278.66 A 55.73 55.73 0 0 0 167.2 222.93" fill="#74c774"/><path d="M 167.2 222.93 A 55.73 55.73 0 0 1  222.92999999999998 278.66 L 167.2 222.93 A 55.73 55.73 0 0 0 222.92999999999998 278.66" fill="#4ab74a"/><path d="M 222.93 222.93 A 55.73 55.73 0 0 1  278.66 278.66 L 222.93 222.93 A 55.73 55.73 0 0 0 278.66 278.66" fill="#f0f9f0"/><path d="M 278.67 278.66 A 55.73 55.73 0 0 1  334.40000000000003 222.93 L 278.67 278.66 A 55.73 55.73 0 0 0 334.40000000000003 222.93" fill="#4edf4e"/><path d="M 390.13 278.66 A 55.73 55.73 0 0 1  445.86 222.93 L 390.13 278.66 A 55.73 55.73 0 0 0 445.86 222.93" fill="#a1eea1"/><path d="M 501.6 278.66 A 55.73 55.73 0 0 1  557.33 222.93 L 501.6 278.66 A 55.73 55.73 0 0 0 557.33 222.93" fill="#bee5be"/><path d="M 724.53 222.93 A 55.73 55.73 0 0 1  780.26 278.66 L 724.53 222.93 A 55.73 55.73 0 0 0 780.26 278.66" fill="#dff2df"/><path d="M 836 278.66 A 55.73 55.73 0 0 1  891.73 222.93 L 836 278.66 A 55.73 55.73 0 0 0 891.73 222.93" fill="#45dd45"/><path d="M 891.73 222.93 A 55.73 55.73 0 0 1  947.46 278.66 L 891.73 222.93 A 55.73 55.73 0 0 0 947.46 278.66" fill="#37af37"/><path d="M 947.47 278.66 A 55.73 55.73 0 0 1  1003.2 222.93 L 947.47 278.66 A 55.73 55.73 0 0 0 1003.2 222.93" fill="#2bd82b"/><path d="M 1003.2 278.66 A 55.73 55.73 0 0 1  1058.93 222.93 L 1003.2 278.66 A 55.73 55.73 0 0 0 1058.93 222.93" fill="#3fb23f"/><path d="M 1058.93 278.66 A 55.73 55.73 0 0 1  1114.66 222.93 L 1058.93 278.66 A 55.73 55.73 0 0 0 1114.66 222.93" fill="#11a011"/><path d="M 167.2 334.40000000000003 A 55.73 55.73 0 0 1  222.92999999999998 278.67 L 167.2 334.40000000000003 A 55.73 55.73 0 0 0 222.92999999999998 278.67" fill="#11a011"/><path d="M 222.93 278.67 A 55.73 55.73 0 0 1  278.66 334.40000000000003 L 222.93 278.67 A 55.73 55.73 0 0 0 278.66 334.40000000000003" fill="#addead"/><path d="M 278.67 278.67 A 55.73 55.73 0 0 1  334.40000000000003 334.40000000000003 L 278.67 278.67 A 55.73 55.73 0 0 0 334.40000000000003 334.40000000000003" fill="#37da37"/><path d="M 334.4 278.67 A 55.73 55.73 0 0 1  390.13 334.40000000000003 L 334.4 278.67 A 55.73 55.73 0 0 0 390.13 334.40000000000003" fill="#b1f1b1"/><path d="M 445.87 278.67 A 55.73 55.73 0 0 1  501.6 334.40000000000003 L 445.87 278.67 A 55.73 55.73 0 0 0 501.6 334.40000000000003" fill="#5bbd5b"/><path d="M 501.6 278.67 A 55.73 55.73 0 0 1  557.33 334.40000000000003 L 501.6 278.67 A 55.73 55.73 0 0 0 557.33 334.40000000000003" fill="#46dd46"/><path d="M 557.33 278.67 A 55.73 55.73 0 0 1  613.0600000000001 334.40000000000003 L 557.33 278.67 A 55.73 55.73 0 0 0 613.0600000000001 334.40000000000003" fill="#84e884"/><path d="M 613.07 334.40000000000003 A 55.73 55.73 0 0 1  668.8000000000001 278.67 L 613.07 334.40000000000003 A 55.73 55.73 0 0 0 668.8000000000001 278.67" fill="#e3f4e3"/><path d="M 668.8 278.67 A 55.73 55.73 0 0 1  724.53 334.40000000000003 L 668.8 278.67 A 55.73 55.73 0 0 0 724.53 334.40000000000003" fill="#62c062"/><path d="M 724.53 334.40000000000003 A 55.73 55.73 0 0 1  780.26 278.67 L 724.53 334.40000000000003 A 55.73 55.73 0 0 0 780.26 278.67" fill="#f7fcf7"/><path d="M 836 278.67 A 55.73 55.73 0 0 1  891.73 334.40000000000003 L 836 278.67 A 55.73 55.73 0 0 0 891.73 334.40000000000003" fill="#a1d9a1"/><path d="M 947.47 278.67 A 55.73 55.73 0 0 1  1003.2 334.40000000000003 L 947.47 278.67 A 55.73 55.73 0 0 0 1003.2 334.40000000000003" fill="#1fa51f"/><path d="M 1003.2 278.67 A 55.73 55.73 0 0 1  1058.93 334.40000000000003 L 1003.2 278.67 A 55.73 55.73 0 0 0 1058.93 334.40000000000003" fill="#59e159"/><path d="M 1058.93 278.67 A 55.73 55.73 0 0 1  1114.66 334.40000000000003 L 1058.93 278.67 A 55.73 55.73 0 0 0 1114.66 334.40000000000003" fill="#e6f5e6"/><path d="M 1170.4 278.67 A 55.73 55.73 0 0 1  1226.13 334.40000000000003 L 1170.4 278.67 A 55.73 55.73 0 0 0 1226.13 334.40000000000003" fill="#fbfefb"/><path d="M 55.73 390.13 A 55.73 55.73 0 0 1  111.46 334.4 L 55.73 390.13 A 55.73 55.73 0 0 0 111.46 334.4" fill="#2dab2d"/><path d="M 111.47 334.4 A 55.73 55.73 0 0 1  167.2 390.13 L 111.47 334.4 A 55.73 55.73 0 0 0 167.2 390.13" fill="#b7f2b7"/><path d="M 167.2 390.13 A 55.73 55.73 0 0 1  222.92999999999998 334.4 L 167.2 390.13 A 55.73 55.73 0 0 0 222.92999999999998 334.4" fill="#bae4ba"/><path d="M 222.93 390.13 A 55.73 55.73 0 0 1  278.66 334.4 L 222.93 390.13 A 55.73 55.73 0 0 0 278.66 334.4" fill="#cff6cf"/><path d="M 278.67 390.13 A 55.73 55.73 0 0 1  334.40000000000003 334.4 L 278.67 390.13 A 55.73 55.73 0 0 0 334.40000000000003 334.4" fill="#c3f4c3"/><path d="M 334.4 390.13 A 55.73 55.73 0 0 1  390.13 334.4 L 334.4 390.13 A 55.73 55.73 0 0 0 390.13 334.4" fill="#61e261"/><path d="M 445.87 390.13 A 55.73 55.73 0 0 1  501.6 334.4 L 445.87 390.13 A 55.73 55.73 0 0 0 501.6 334.4" fill="#2bd82b"/><path d="M 501.6 390.13 A 55.73 55.73 0 0 1  557.33 334.4 L 501.6 390.13 A 55.73 55.73 0 0 0 557.33 334.4" fill="#46b546"/><path d="M 668.8 334.4 A 55.73 55.73 0 0 1  724.53 390.13 L 668.8 334.4 A 55.73 55.73 0 0 0 724.53 390.13" fill="#edf8ed"/><path d="M 724.53 390.13 A 55.73 55.73 0 0 1  780.26 334.4 L 724.53 390.13 A 55.73 55.73 0 0 0 780.26 334.4" fill="#8cea8c"/><path d="M 780.27 390.13 A 55.73 55.73 0 0 1  836 334.4 L 780.27 390.13 A 55.73 55.73 0 0 0 836 334.4" fill="#c6f5c6"/><path d="M 891.73 334.4 A 55.73 55.73 0 0 1  947.46 390.13 L 891.73 334.4 A 55.73 55.73 0 0 0 947.46 390.13" fill="#8dd28d"/><path d="M 1003.2 334.4 A 55.73 55.73 0 0 1  1058.93 390.13 L 1003.2 334.4 A 55.73 55.73 0 0 0 1058.93 390.13" fill="#eafbea"/><path d="M 1114.67 334.4 A 55.73 55.73 0 0 1  1170.4 390.13 L 1114.67 334.4 A 55.73 55.73 0 0 0 1170.4 390.13" fill="#acf0ac"/><path d="M 1170.4 334.4 A 55.73 55.73 0 0 1  1226.13 390.13 L 1170.4 334.4 A 55.73 55.73 0 0 0 1226.13 390.13" fill="#b6e2b6"/><path d="M 0 445.86 A 55.73 55.73 0 0 1  55.73 390.13 L 0 445.86 A 55.73 55.73 0 0 0 55.73 390.13" fill="#5be15b"/><path d="M 111.47 445.86 A 55.73 55.73 0 0 1  167.2 390.13 L 111.47 445.86 A 55.73 55.73 0 0 0 167.2 390.13" fill="#52ba52"/><path d="M 167.2 390.13 A 55.73 55.73 0 0 1  222.92999999999998 445.86 L 167.2 390.13 A 55.73 55.73 0 0 0 222.92999999999998 445.86" fill="#bbe4bb"/><path d="M 222.93 445.86 A 55.73 55.73 0 0 1  278.66 390.13 L 222.93 445.86 A 55.73 55.73 0 0 0 278.66 390.13" fill="#28a928"/><path d="M 278.67 445.86 A 55.73 55.73 0 0 1  334.40000000000003 390.13 L 278.67 445.86 A 55.73 55.73 0 0 0 334.40000000000003 390.13" fill="#fbfefb"/><path d="M 390.13 445.86 A 55.73 55.73 0 0 1  445.86 390.13 L 390.13 445.86 A 55.73 55.73 0 0 0 445.86 390.13" fill="#fdfffd"/><path d="M 445.87 390.13 A 55.73 55.73 0 0 1  501.6 445.86 L 445.87 390.13 A 55.73 55.73 0 0 0 501.6 445.86" fill="#e8fbe8"/><path d="M 501.6 445.86 A 55.73 55.73 0 0 1  557.33 390.13 L 501.6 445.86 A 55.73 55.73 0 0 0 557.33 390.13" fill="#81cc81"/><path d="M 668.8 445.86 A 55.73 55.73 0 0 1  724.53 390.13 L 668.8 445.86 A 55.73 55.73 0 0 0 724.53 390.13" fill="#2eab2e"/><path d="M 836 445.86 A 55.73 55.73 0 0 1  891.73 390.13 L 836 445.86 A 55.73 55.73 0 0 0 891.73 390.13" fill="#a7efa7"/><path d="M 1058.93 390.13 A 55.73 55.73 0 0 1  1114.66 445.86 L 1058.93 390.13 A 55.73 55.73 0 0 0 1114.66 445.86" fill="#a1eea1"/><path d="M 1114.67 390.13 A 55.73 55.73 0 0 1  1170.4 445.86 L 1114.67 390.13 A 55.73 55.73 0 0 0 1170.4 445.86" fill="#eef8ee"/><path d="M 1170.4 390.13 A 55.73 55.73 0 0 1  1226.13 445.86 L 1170.4 390.13 A 55.73 55.73 0 0 0 1226.13 445.86" fill="#e4f4e4"/><path d="M 111.47 501.6 A 55.73 55.73 0 0 1  167.2 445.87 L 111.47 501.6 A 55.73 55.73 0 0 0 167.2 445.87" fill="#47dd47"/><path d="M 167.2 501.6 A 55.73 55.73 0 0 1  222.92999999999998 445.87 L 167.2 501.6 A 55.73 55.73 0 0 0 222.92999999999998 445.87" fill="#8dea8d"/><path d="M 222.93 501.6 A 55.73 55.73 0 0 1  278.66 445.87 L 222.93 501.6 A 55.73 55.73 0 0 0 278.66 445.87" fill="#bde5bd"/><path d="M 278.67 501.6 A 55.73 55.73 0 0 1  334.40000000000003 445.87 L 278.67 501.6 A 55.73 55.73 0 0 0 334.40000000000003 445.87" fill="#54bb54"/><path d="M 334.4 445.87 A 55.73 55.73 0 0 1  390.13 501.6 L 334.4 445.87 A 55.73 55.73 0 0 0 390.13 501.6" fill="#29d829"/><path d="M 557.33 501.6 A 55.73 55.73 0 0 1  613.0600000000001 445.87 L 557.33 501.6 A 55.73 55.73 0 0 0 613.0600000000001 445.87" fill="#f0f9f0"/><path d="M 613.07 501.6 A 55.73 55.73 0 0 1  668.8000000000001 445.87 L 613.07 501.6 A 55.73 55.73 0 0 0 668.8000000000001 445.87" fill="#47dd47"/><path d="M 668.8 445.87 A 55.73 55.73 0 0 1  724.53 501.6 L 668.8 445.87 A 55.73 55.73 0 0 0 724.53 501.6" fill="#bdf3bd"/><path d="M 780.27 501.6 A 55.73 55.73 0 0 1  836 445.87 L 780.27 501.6 A 55.73 55.73 0 0 0 836 445.87" fill="#3fb23f"/><path d="M 836 501.6 A 55.73 55.73 0 0 1  891.73 445.87 L 836 501.6 A 55.73 55.73 0 0 0 891.73 445.87" fill="#7de77d"/><path d="M 891.73 445.87 A 55.73 55.73 0 0 1  947.46 501.6 L 891.73 445.87 A 55.73 55.73 0 0 0 947.46 501.6" fill="#e1fae1"/><path d="M 947.47 445.87 A 55.73 55.73 0 0 1  1003.2 501.6 L 947.47 445.87 A 55.73 55.73 0 0 0 1003.2 501.6" fill="#a2eea2"/><path d="M 1058.93 445.87 A 55.73 55.73 0 0 1  1114.66 501.6 L 1058.93 445.87 A 55.73 55.73 0 0 0 1114.66 501.6" fill="#9ed89e"/><path d="M 1114.67 445.87 A 55.73 55.73 0 0 1  1170.4 501.6 L 1114.67 445.87 A 55.73 55.73 0 0 0 1170.4 501.6" fill="#f5fdf5"/><path d="M 0 557.33 A 55.73 55.73 0 0 1  55.73 501.6 L 0 557.33 A 55.73 55.73 0 0 0 55.73 501.6" fill="#41dc41"/><path d="M 55.73 501.6 A 55.73 55.73 0 0 1  111.46 557.33 L 55.73 501.6 A 55.73 55.73 0 0 0 111.46 557.33" fill="#76c876"/><path d="M 111.47 557.33 A 55.73 55.73 0 0 1  167.2 501.6 L 111.47 557.33 A 55.73 55.73 0 0 0 167.2 501.6" fill="#3ddc3d"/><path d="M 167.2 501.6 A 55.73 55.73 0 0 1  222.92999999999998 557.33 L 167.2 501.6 A 55.73 55.73 0 0 0 222.92999999999998 557.33" fill="#a6efa6"/><path d="M 278.67 557.33 A 55.73 55.73 0 0 1  334.40000000000003 501.6 L 278.67 557.33 A 55.73 55.73 0 0 0 334.40000000000003 501.6" fill="#1fa51f"/><path d="M 445.87 501.6 A 55.73 55.73 0 0 1  501.6 557.33 L 445.87 501.6 A 55.73 55.73 0 0 0 501.6 557.33" fill="#d8f8d8"/><path d="M 501.6 501.6 A 55.73 55.73 0 0 1  557.33 557.33 L 501.6 501.6 A 55.73 55.73 0 0 0 557.33 557.33" fill="#9bd79b"/><path d="M 613.07 501.6 A 55.73 55.73 0 0 1  668.8000000000001 557.33 L 613.07 501.6 A 55.73 55.73 0 0 0 668.8000000000001 557.33" fill="#5ee15e"/><path d="M 668.8 501.6 A 55.73 55.73 0 0 1  724.53 557.33 L 668.8 501.6 A 55.73 55.73 0 0 0 724.53 557.33" fill="#2fd92f"/><path d="M 724.53 501.6 A 55.73 55.73 0 0 1  780.26 557.33 L 724.53 501.6 A 55.73 55.73 0 0 0 780.26 557.33" fill="#aaddaa"/><path d="M 780.27 557.33 A 55.73 55.73 0 0 1  836 501.6 L 780.27 557.33 A 55.73 55.73 0 0 0 836 501.6" fill="#77e677"/><path d="M 836 501.6 A 55.73 55.73 0 0 1  891.73 557.33 L 836 501.6 A 55.73 55.73 0 0 0 891.73 557.33" fill="#acdeac"/><path d="M 891.73 501.6 A 55.73 55.73 0 0 1  947.46 557.33 L 891.73 501.6 A 55.73 55.73 0 0 0 947.46 557.33" fill="#f0f9f0"/><path d="M 947.47 557.33 A 55.73 55.73 0 0 1  1003.2 501.6 L 947.47 557.33 A 55.73 55.73 0 0 0 1003.2 501.6" fill="#9ed89e"/><path d="M 1003.2 557.33 A 55.73 55.73 0 0 1  1058.93 501.6 L 1003.2 557.33 A 55.73 55.73 0 0 0 1058.93 501.6" fill="#e6f5e6"/><path d="M 1058.93 501.6 A 55.73 55.73 0 0 1  1114.66 557.33 L 1058.93 501.6 A 55.73 55.73 0 0 0 1114.66 557.33" fill="#b7e2b7"/><path d="M 1114.67 501.6 A 55.73 55.73 0 0 1  1170.4 557.33 L 1114.67 501.6 A 55.73 55.73 0 0 0 1170.4 557.33" fill="#11a011"/></g></svg>