<svg xmlns="http://www.w3.org/2000/svg" xmlns:xlink="http://www.w3.org/1999/xlink" preserveAspectRatio="xMaxYMax slice" viewBox="0 0 2100 999.981"><g transform="scale(1.7942583732057416)"><rect width="1226.133" height="557.333" x="0" y="0" fill="#fff"/><path fill="#dcf9dc" d="M 0 0 A 55.73 55.73 0 0 1 55.73 55.73 L 0 0 A 55.73 55.73 0 0 0 55.73 55.73"/><path fill="#7ccb7c" d="M 55.73 0 A 55.73 55.73 0 0 1 111.46 55.73 L 55.73 0 A 55.73 55.73 0 0 0 111.46 55.73"/><path fill="#edf8ed" d="M 111.47 55.73 A 55.73 55.73 0 0 1 167.2 0 L 111.47 55.73 A 55.73 55.73 0 0 0 167.2 0"/><path fill="#f6fcf6" d="M 390.13 55.73 A 55.73 55.73 0 0 1 445.86 0 L 390.13 55.73 A 55.73 55.73 0 0 0 445.86 0"/><path fill="#d4f7d4" d="M 445.87 55.73 A 55.73 55.73 0 0 1 501.6 0 L 445.87 55.73 A 55.73 55.73 0 0 0 501.6 0"/><path fill="#bdf3bd" d="M 501.6 55.73 A 55.73 55.73 0 0 1 557.33 0 L 501.6 55.73 A 55.73 55.73 0 0 0 557.33 0"/><path fill="#6ce46c" d="M 613.07 55.73 A 55.73 55.73 0 0 1 668.8000000000001 0 L 613.07 55.73 A 55.73 55.73 0 0 0 668.8000000000001 0"/><path fill="#cbf5cb" d="M 668.8 0 A 55.73 55.73 0 0 1 724.53 55.73 L 668.8 0 A 55.73 55.73 0 0 0 724.53 55.73"/><path fill="#69c369" d="M 724.53 55.73 A 55.73 55.73 0 0 1 780.26 0 L 724.53 55.73 A 55.73 55.73 0 0 0 780.26 0"/><path fill="#c3f4c3" d="M 780.27 0 A 55.73 55.73 0 0 1 836 55.73 L 780.27 0 A 55.73 55.73 0 0 0 836 55.73"/><path fill="#b4f1b4" d="M 836 0 A 55.73 55.73 0 0 1 891.73 55.73 L 836 0 A 55.73 55.73 0 0 0 891.73 55.73"/><path fill="#1ba41b" d="M 891.73 0 A 55.73 55.73 0 0 1 947.46 55.73 L 891.73 0 A 55.73 55.73 0 0 0 947.46 55.73"/><path fill="#def2de" d="M 947.47 0 A 55.73 55.73 0 0 1 1003.2 55.73 L 947.47 0 A 55.73 55.73 0 0 0 1003.2 55.73"/><path fill="#75c875" d="M 1003.2 55.73 A 55.73 55.73 0 0 1 1058.93 0 L 1003.2 55.73 A 55.73 55.73 0 0 0 1058.93 0"/><path fill="#4bb74b" d="M 1114.67 0 A 55.73 55.73 0 0 1 1170.4 55.73 L 1114.67 0 A 55.73 55.73 0 0 0 1170.4 55.73"/><path fill="#62c062" d="M 1170.4 0 A 55.73 55.73 0 0 1 1226.13 55.73 L 1170.4 0 A 55.73 55.73 0 0 0 1226.13 55.73"/><path fill="#d1f7d1" d="M 55.73 111.46 A 55.73 55.73 0 0 1 111.46 55.73 L 55.73 111.46 A 55.73 55.73 0 0 0 111.46 55.73"/><path fill="#6de46d" d="M 111.47 55.73 A 55.73 55.73 0 0 1 167.2 111.46 L 111.47 55.73 A 55.73 55.73 0 0 0 167.2 111.46"/><path fill="#43dd43" d="M 167.2 55.73 A 55.73 55.73 0 0 1 222.92999999999998 111.46 L 167.2 55.73 A 55.73 55.73 0 0 0 222.92999999999998 111.46"/><path fill="#f9fef9" d="M 222.93 111.46 A 55.73 55.73 0 0 1 278.66 55.73 L 222.93 111.46 A 55.73 55.73 0 0 0 278.66 55.73"/><path fill="#059b05" d="M 334.4 55.73 A 55.73 55.73 0 0 1 390.13 111.46 L 334.4 55.73 A 55.73 55.73 0 0 0 390.13 111.46"/><path fill="#9bed9b" d="M 390.13 55.73 A 55.73 55.73 0 0 1 445.86 111.46 L 390.13 55.73 A 55.73 55.73 0 0 0 445.86 111.46"/><path fill="#f3fdf3" d="M 445.87 55.73 A 55.73 55.73 0 0 1 501.6 111.46 L 445.87 55.73 A 55.73 55.73 0 0 0 501.6 111.46"/><path fill="#6fe56f" d="M 501.6 111.46 A 55.73 55.73 0 0 1 557.33 55.73 L 501.6 111.46 A 55.73 55.73 0 0 0 557.33 55.73"/><path fill="#e6fae6" d="M 557.33 111.46 A 55.73 55.73 0 0 1 613.0600000000001 55.73 L 557.33 111.46 A 55.73 55.73 0 0 0 613.0600000000001 55.73"/><path fill="#50b950" d="M 613.07 111.46 A 55.73 55.73 0 0 1 668.8000000000001 55.73 L 613.07 111.46 A 55.73 55.73 0 0 0 668.8000000000001 55.73"/><path fill="#d3f7d3" d="M 668.8 111.46 A 55.73 55.73 0 0 1 724.53 55.73 L 668.8 111.46 A 55.73 55.73 0 0 0 724.53 55.73"/><path fill="#a9dda9" d="M 836 55.73 A 55.73 55.73 0 0 1 891.73 111.46 L 836 55.73 A 55.73 55.73 0 0 0 891.73 111.46"/><path fill="#61c061" d="M 947.47 111.46 A 55.73 55.73 0 0 1 1003.2 55.73 L 947.47 111.46 A 55.73 55.73 0 0 0 1003.2 55.73"/><path fill="#54bb54" d="M 1003.2 55.73 A 55.73 55.73 0 0 1 1058.93 111.46 L 1003.2 55.73 A 55.73 55.73 0 0 0 1058.93 111.46"/><path fill="#0e9e0e" d="M 1058.93 55.73 A 55.73 55.73 0 0 1 1114.66 111.46 L 1058.93 55.73 A 55.73 55.73 0 0 0 1114.66 111.46"/><path fill="#8aea8a" d="M 1114.67 55.73 A 55.73 55.73 0 0 1 1170.4 111.46 L 1114.67 55.73 A 55.73 55.73 0 0 0 1170.4 111.46"/><path fill="#80e880" d="M 1170.4 111.46 A 55.73 55.73 0 0 1 1226.13 55.73 L 1170.4 111.46 A 55.73 55.73 0 0 0 1226.13 55.73"/><path fill="#f0fcf0" d="M 0 167.2 A 55.73 55.73 0 0 1 55.73 111.47 L 0 167.2 A 55.73 55.73 0 0 0 55.73 111.47"/><path fill="#54bb54" d="M 55.73 111.47 A 55.73 55.73 0 0 1 111.46 167.2 L 55.73 111.47 A 55.73 55.73 0 0 0 111.46 167.2"/><path fill="#74e674" d="M 111.47 167.2 A 55.73 55.73 0 0 1 167.2 111.47 L 111.47 167.2 A 55.73 55.73 0 0 0 167.2 111.47"/><path fill="#52df52" d="M 167.2 111.47 A 55.73 55.73 0 0 1 222.92999999999998 167.2 L 167.2 111.47 A 55.73 55.73 0 0 0 222.92999999999998 167.2"/><path fill="#c1f4c1" d="M 222.93 111.47 A 55.73 55.73 0 0 1 278.66 167.2 L 222.93 111.47 A 55.73 55.73 0 0 0 278.66 167.2"/><path fill="#a8efa8" d="M 278.67 167.2 A 55.73 55.73 0 0 1 334.40000000000003 111.47 L 278.67 167.2 A 55.73 55.73 0 0 0 334.40000000000003 111.47"/><path fill="#eafbea" d="M 334.4 167.2 A 55.73 55.73 0 0 1 390.13 111.47 L 334.4 167.2 A 55.73 55.73 0 0 0 390.13 111.47"/><path fill="#11a011" d="M 445.87 167.2 A 55.73 55.73 0 0 1 501.6 111.47 L 445.87 167.2 A 55.73 55.73 0 0 0 501.6 111.47"/><path fill="#8aea8a" d="M 557.33 167.2 A 55.73 55.73 0 0 1 613.0600000000001 111.47 L 557.33 167.2 A 55.73 55.73 0 0 0 613.0600000000001 111.47"/><path fill="#e5fae5" d="M 891.73 111.47 A 55.73 55.73 0 0 1 947.46 167.2 L 891.73 111.47 A 55.73 55.73 0 0 0 947.46 167.2"/><path fill="#069c06" d="M 1058.93 167.2 A 55.73 55.73 0 0 1 1114.66 111.47 L 1058.93 167.2 A 55.73 55.73 0 0 0 1114.66 111.47"/><path fill="#61e261" d="M 1170.4 167.2 A 55.73 55.73 0 0 1 1226.13 111.47 L 1170.4 167.2 A 55.73 55.73 0 0 0 1226.13 111.47"/><path fill="#94eb94" d="M 0 222.92999999999998 A 55.73 55.73 0 0 1 55.73 167.2 L 0 222.92999999999998 A 55.73 55.73 0 0 0 55.73 167.2"/><path fill="#95d595" d="M 55.73 222.92999999999998 A 55.73 55.73 0 0 1 111.46 167.2 L 55.73 222.92999999999998 A 55.73 55.73 0 0 0 111.46 167.2"/><path fill="#bde4bd" d="M 111.47 222.92999999999998 A 55.73 55.73 0 0 1 167.2 167.2 L 111.47 222.92999999999998 A 55.73 55.73 0 0 0 167.2 167.2"/><path fill="#42dc42" d="M 222.93 222.92999999999998 A 55.73 55.73 0 0 1 278.66 167.2 L 222.93 222.92999999999998 A 55.73 55.73 0 0 0 278.66 167.2"/><path fill="#b9f2b9" d="M 334.4 167.2 A 55.73 55.73 0 0 1 390.13 222.92999999999998 L 334.4 167.2 A 55.73 55.73 0 0 0 390.13 222.92999999999998"/><path fill="#13a113" d="M 390.13 167.2 A 55.73 55.73 0 0 1 445.86 222.92999999999998 L 390.13 167.2 A 55.73 55.73 0 0 0 445.86 222.92999999999998"/><path fill="#23d723" d="M 445.87 167.2 A 55.73 55.73 0 0 1 501.6 222.92999999999998 L 445.87 167.2 A 55.73 55.73 0 0 0 501.6 222.92999999999998"/><path fill="#76e676" d="M 501.6 222.92999999999998 A 55.73 55.73 0 0 1 557.33 167.2 L 501.6 222.92999999999998 A 55.73 55.73 0 0 0 557.33 167.2"/><path fill="#d9f8d9" d="M 557.33 222.92999999999998 A 55.73 55.73 0 0 1 613.0600000000001 167.2 L 557.33 222.92999999999998 A 55.73 55.73 0 0 0 613.0600000000001 167.2"/><path fill="#f6fdf6" d="M 613.07 222.92999999999998 A 55.73 55.73 0 0 1 668.8000000000001 167.2 L 613.07 222.92999999999998 A 55.73 55.73 0 0 0 668.8000000000001 167.2"/><path fill="#7ccb7c" d="M 668.8 167.2 A 55.73 55.73 0 0 1 724.53 222.92999999999998 L 668.8 167.2 A 55.73 55.73 0 0 0 724.53 222.92999999999998"/><path fill="#2aaa2a" d="M 724.53 222.92999999999998 A 55.73 55.73 0 0 1 780.26 167.2 L 724.53 222.92999999999998 A 55.73 55.73 0 0 0 780.26 167.2"/><path fill="#d7f8d7" d="M 780.27 167.2 A 55.73 55.73 0 0 1 836 222.92999999999998 L 780.27 167.2 A 55.73 55.73 0 0 0 836 222.92999999999998"/><path fill="#11a011" d="M 1003.2 167.2 A 55.73 55.73 0 0 1 1058.93 222.92999999999998 L 1003.2 167.2 A 55.73 55.73 0 0 0 1058.93 222.92999999999998"/><path fill="#72e572" d="M 1058.93 222.92999999999998 A 55.73 55.73 0 0 1 1114.66 167.2 L 1058.93 222.92999999999998 A 55.73 55.73 0 0 0 1114.66 167.2"/><path fill="#56bb56" d="M 1114.67 167.2 A 55.73 55.73 0 0 1 1170.4 222.92999999999998 L 1114.67 167.2 A 55.73 55.73 0 0 0 1170.4 222.92999999999998"/><path fill="#74c774" d="M 111.47 278.66 A 55.73 55.73 0 0 1 167.2 222.93 L 111.47 278.66 A 55.73 55.73 0 0 0 167.2 222.93"/><path fill="#4ab74a" d="M 167.2 222.93 A 55.73 55.73 0 0 1 222.92999999999998 278.66 L 167.2 222.93 A 55.73 55.73 0 0 0 222.92999999999998 278.66"/><path fill="#f0f9f0" d="M 222.93 222.93 A 55.73 55.73 0 0 1 278.66 278.66 L 222.93 222.93 A 55.73 55.73 0 0 0 278.66 278.66"/><path fill="#4edf4e" d="M 278.67 278.66 A 55.73 55.73 0 0 1 334.40000000000003 222.93 L 278.67 278.66 A 55.73 55.73 0 0 0 334.40000000000003 222.93"/><path fill="#a1eea1" d="M 390.13 278.66 A 55.73 55.73 0 0 1 445.86 222.93 L 390.13 278.66 A 55.73 55.73 0 0 0 445.86 222.93"/><path fill="#bee5be" d="M 501.6 278.66 A 55.73 55.73 0 0 1 557.33 222.93 L 501.6 278.66 A 55.73 55.73 0 0 0 557.33 222.93"/><path fill="#dff2df" d="M 724.53 222.93 A 55.73 55.73 0 0 1 780.26 278.66 L 724.53 222.93 A 55.73 55.73 0 0 0 780.26 278.66"/><path fill="#45dd45" d="M 836 278.66 A 55.73 55.73 0 0 1 891.73 222.93 L 836 278.66 A 55.73 55.73 0 0 0 891.73 222.93"/><path fill="#37af37" d="M 891.73 222.93 A 55.73 55.73 0 0 1 947.46 278.66 L 891.73 222.93 A 55.73 55.73 0 0 0 947.46 278.66"/><path fill="#2bd82b" d="M 947.47 278.66 A 55.73 55.73 0 0 1 1003.2 222.93 L 947.47 278.66 A 55.73 55.73 0 0 0 1003.2 222.93"/><path fill="#3fb23f" d="M 1003.2 278.66 A 55.73 55.73 0 0 1 1058.93 222.93 L 1003.2 278.66 A 55.73 55.73 0 0 0 1058.93 222.93"/><path fill="#11a011" d="M 1058.93 278.66 A 55.73 55.73 0 0 1 1114.66 222.93 L 1058.93 278.66 A 55.73 55.73 0 0 0 1114.66 222.93"/><path fill="#11a011" d="M 167.2 334.40000000000003 A 55.73 55.73 0 0 1 222.92999999999998 278.67 L 167.2 334.40000000000003 A 55.73 55.73 0 0 0 222.92999999999998 278.67"/><path fill="#addead" d="M 222.93 278.67 A 55.73 55.73 0 0 1 278.66 334.40000000000003 L 222.93 278.67 A 55.73 55.73 0 0 0 278.66 334.40000000000003"/><path fill="#37da37" d="M 278.67 278.67 A 55.73 55.73 0 0 1 334.40000000000003 334.40000000000003 L 278.67 278.67 A 55.73 55.73 0 0 0 334.40000000000003 334.40000000000003"/><path fill="#b1f1b1" d="M 334.4 278.67 A 55.73 55.73 0 0 1 390.13 334.40000000000003 L 334.4 278.67 A 55.73 55.73 0 0 0 390.13 334.40000000000003"/><path fill="#5bbd5b" d="M 445.87 278.67 A 55.73 55.73 0 0 1 501.6 334.40000000000003 L 445.87 278.67 A 55.73 55.73 0 0 0 501.6 334.40000000000003"/><path fill="#46dd46" d="M 501.6 278.67 A 55.73 55.73 0 0 1 557.33 334.40000000000003 L 501.6 278.67 A 55.73 55.73 0 0 0 557.33 334.40000000000003"/><path fill="#84e884" d="M 557.33 278.67 A 55.73 55.73 0 0 1 613.0600000000001 334.40000000000003 L 557.33 278.67 A 55.73 55.73 0 0 0 613.0600000000001 334.40000000000003"/><path fill="#e3f4e3" d="M 613.07 334.40000000000003 A 55.73 55.73 0 0 1 668.8000000000001 278.67 L 613.07 334.40000000000003 A 55.73 55.73 0 0 0 668.8000000000001 278.67"/><path fill="#62c062" d="M 668.8 278.67 A 55.73 55.73 0 0 1 724.53 334.40000000000003 L 668.8 278.67 A 55.73 55.73 0 0 0 724.53 334.40000000000003"/><path fill="#f7fcf7" d="M 724.53 334.40000000000003 A 55.73 55.73 0 0 1 780.26 278.67 L 724.53 334.40000000000003 A 55.73 55.73 0 0 0 780.26 278.67"/><path fill="#a1d9a1" d="M 836 278.67 A 55.73 55.73 0 0 1 891.73 334.40000000000003 L 836 278.67 A 55.73 55.73 0 0 0 891.73 334.40000000000003"/><path fill="#1fa51f" d="M 947.47 278.67 A 55.73 55.73 0 0 1 1003.2 334.40000000000003 L 947.47 278.67 A 55.73 55.73 0 0 0 1003.2 334.40000000000003"/><path fill="#59e159" d="M 1003.2 278.67 A 55.73 55.73 0 0 1 1058.93 334.40000000000003 L 1003.2 278.67 A 55.73 55.73 0 0 0 1058.93 334.40000000000003"/><path fill="#e6f5e6" d="M 1058.93 278.67 A 55.73 55.73 0 0 1 1114.66 334.40000000000003 L 1058.93 278.67 A 55.73 55.73 0 0 0 1114.66 334.40000000000003"/><path fill="#fbfefb" d="M 1170.4 278.67 A 55.73 55.73 0 0 1 1226.13 334.40000000000003 L 1170.4 278.67 A 55.73 55.73 0 0 0 1226.13 334.40000000000003"/><path fill="#2dab2d" d="M 55.73 390.13 A 55.73 55.73 0 0 1 111.46 334.4 L 55.73 390.13 A 55.73 55.73 0 0 0 111.46 334.4"/><path fill="#b7f2b7" d="M 111.47 334.4 A 55.73 55.73 0 0 1 167.2 390.13 L 111.47 334.4 A 55.73 55.73 0 0 0 167.2 390.13"/><path fill="#bae4ba" d="M 167.2 390.13 A 55.73 55.73 0 0 1 222.92999999999998 334.4 L 167.2 390.13 A 55.73 55.73 0 0 0 222.92999999999998 334.4"/><path fill="#cff6cf" d="M 222.93 390.13 A 55.73 55.73 0 0 1 278.66 334.4 L 222.93 390.13 A 55.73 55.73 0 0 0 278.66 334.4"/><path fill="#c3f4c3" d="M 278.67 390.13 A 55.73 55.73 0 0 1 334.40000000000003 334.4 L 278.67 390.13 A 55.73 55.73 0 0 0 334.40000000000003 334.4"/><path fill="#61e261" d="M 334.4 390.13 A 55.73 55.73 0 0 1 390.13 334.4 L 334.4 390.13 A 55.73 55.73 0 0 0 390.13 334.4"/><path fill="#2bd82b" d="M 445.87 390.13 A 55.73 55.73 0 0 1 501.6 334.4 L 445.87 390.13 A 55.73 55.73 0 0 0 501.6 334.4"/><path fill="#46b546" d="M 501.6 390.13 A 55.73 55.73 0 0 1 557.33 334.4 L 501.6 390.13 A 55.73 55.73 0 0 0 557.33 334.4"/><path fill="#edf8ed" d="M 668.8 334.4 A 55.73 55.73 0 0 1 724.53 390.13 L 668.8 334.4 A 55.73 55.73 0 0 0 724.53 390.13"/><path fill="#8cea8c" d="M 724.53 390.13 A 55.73 55.73 0 0 1 780.26 334.4 L 724.53 390.13 A 55.73 55.73 0 0 0 780.26 334.4"/><path fill="#c6f5c6" d="M 780.27 390.13 A 55.73 55.73 0 0 1 836 334.4 L 780.27 390.13 A 55.73 55.73 0 0 0 836 334.4"/><path fill="#8dd28d" d="M 891.73 334.4 A 55.73 55.73 0 0 1 947.46 390.13 L 891.73 334.4 A 55.73 55.73 0 0 0 947.46 390.13"/><path fill="#eafbea" d="M 1003.2 334.4 A 55.73 55.73 0 0 1 1058.93 390.13 L 1003.2 334.4 A 55.73 55.73 0 0 0 1058.93 390.13"/><path fill="#acf0ac" d="M 1114.67 334.4 A 55.73 55.73 0 0 1 1170.4 390.13 L 1114.67 334.4 A 55.73 55.73 0 0 0 1170.4 390.13"/><path fill="#b6e2b6" d="M 1170.4 334.4 A 55.73 55.73 0 0 1 1226.13 390.13 L 1170.4 334.4 A 55.73 55.73 0 0 0 1226.13 390.13"/><path fill="#5be15b" d="M 0 445.86 A 55.73 55.73 0 0 1 55.73 390.13 L 0 445.86 A 55.73 55.73 0 0 0 55.73 390.13"/><path fill="#52ba52" d="M 111.47 445.86 A 55.73 55.73 0 0 1 167.2 390.13 L 111.47 445.86 A 55.73 55.73 0 0 0 167.2 390.13"/><path fill="#bbe4bb" d="M 167.2 390.13 A 55.73 55.73 0 0 1 222.92999999999998 445.86 L 167.2 390.13 A 55.73 55.73 0 0 0 222.92999999999998 445.86"/><path fill="#28a928" d="M 222.93 445.86 A 55.73 55.73 0 0 1 278.66 390.13 L 222.93 445.86 A 55.73 55.73 0 0 0 278.66 390.13"/><path fill="#fbfefb" d="M 278.67 445.86 A 55.73 55.73 0 0 1 334.40000000000003 390.13 L 278.67 445.86 A 55.73 55.73 0 0 0 334.40000000000003 390.13"/><path fill="#fdfffd" d="M 390.13 445.86 A 55.73 55.73 0 0 1 445.86 390.13 L 390.13 445.86 A 55.73 55.73 0 0 0 445.86 390.13"/><path fill="#e8fbe8" d="M 445.87 390.13 A 55.73 55.73 0 0 1 501.6 445.86 L 445.87 390.13 A 55.73 55.73 0 0 0 501.6 445.86"/><path fill="#81cc81" d="M 501.6 445.86 A 55.73 55.73 0 0 1 557.33 390.13 L 501.6 445.86 A 55.73 55.73 0 0 0 557.33 390.13"/><path fill="#2eab2e" d="M 668.8 445.86 A 55.73 55.73 0 0 1 724.53 390.13 L 668.8 445.86 A 55.73 55.73 0 0 0 724.53 390.13"/><path fill="#a7efa7" d="M 836 445.86 A 55.73 55.73 0 0 1 891.73 390.13 L 836 445.86 A 55.73 55.73 0 0 0 891.73 390.13"/><path fill="#a1eea1" d="M 1058.93 390.13 A 55.73 55.73 0 0 1 1114.66 445.86 L 1058.93 390.13 A 55.73 55.73 0 0 0 1114.66 445.86"/><path fill="#eef8ee" d="M 1114.67 390.13 A 55.73 55.73 0 0 1 1170.4 445.86 L 1114.67 390.13 A 55.73 55.73 0 0 0 1170.4 445.86"/><path fill="#e4f4e4" d="M 1170.4 390.13 A 55.73 55.73 0 0 1 1226.13 445.86 L 1170.4 390.13 A 55.73 55.73 0 0 0 1226.13 445.86"/><path fill="#47dd47" d="M 111.47 501.6 A 55.73 55.73 0 0 1 167.2 445.87 L 111.47 501.6 A 55.73 55.73 0 0 0 167.2 445.87"/><path fill="#8dea8d" d="M 167.2 501.6 A 55.73 55.73 0 0 1 222.92999999999998 445.87 L 167.2 501.6 A 55.73 55.73 0 0 0 222.92999999999998 445.87"/><path fill="#bde5bd" d="M 222.93 501.6 A 55.73 55.73 0 0 1 278.66 445.87 L 222.93 501.6 A 55.73 55.73 0 0 0 278.66 445.87"/><path fill="#54bb54" d="M 278.67 501.6 A 55.73 55.73 0 0 1 334.40000000000003 445.87 L 278.67 501.6 A 55.73 55.73 0 0 0 334.40000000000003 445.87"/><path fill="#29d829" d="M 334.4 445.87 A 55.73 55.73 0 0 1 390.13 501.6 L 334.4 445.87 A 55.73 55.73 0 0 0 390.13 501.6"/><path fill="#f0f9f0" d="M 557.33 501.6 A 55.73 55.73 0 0 1 613.0600000000001 445.87 L 557.33 501.6 A 55.73 55.73 0 0 0 613.0600000000001 445.87"/><path fill="#47dd47" d="M 613.07 501.6 A 55.73 55.73 0 0 1 668.8000000000001 445.87 L 613.07 501.6 A 55.73 55.73 0 0 0 668.8000000000001 445.87"/><path fill="#bdf3bd" d="M 668.8 445.87 A 55.73 55.73 0 0 1 724.53 501.6 L 668.8 445.87 A 55.73 55.73 0 0 0 724.53 501.6"/><path fill="#3fb23f" d="M 780.27 501.6 A 55.73 55.73 0 0 1 836 445.87 L 780.27 501.6 A 55.73 55.73 0 0 0 836 445.87"/><path fill="#7de77d" d="M 836 501.6 A 55.73 55.73 0 0 1 891.73 445.87 L 836 501.6 A 55.73 55.73 0 0 0 891.73 445.87"/><path fill="#e1fae1" d="M 891.73 445.87 A 55.73 55.73 0 0 1 947.46 501.6 L 891.73 445.87 A 55.73 55.73 0 0 0 947.46 501.6"/><path fill="#a2eea2" d="M 947.47 445.87 A 55.73 55.73 0 0 1 1003.2 501.6 L 947.47 445.87 A 55.73 55.73 0 0 0 1003.2 501.6"/><path fill="#9ed89e" d="M 1058.93 445.87 A 55.73 55.73 0 0 1 1114.66 501.6 L 1058.93 445.87 A 55.73 55.73 0 0 0 1114.66 501.6"/><path fill="#f5fdf5" d="M 1114.67 445.87 A 55.73 55.73 0 0 1 1170.4 501.6 L 1114.67 445.87 A 55.73 55.73 0 0 0 1170.4 501.6"/><path fill="#41dc41" d="M 0 557.33 A 55.73 55.73 0 0 1 55.73 501.6 L 0 557.33 A 55.73 55.73 0 0 0 55.73 501.6"/><path fill="#76c876" d="M 55.73 501.6 A 55.73 55.73 0 0 1 111.46 557.33 L 55.73 501.6 A 55.73 55.73 0 0 0 111.46 557.33"/><path fill="#3ddc3d" d="M 111.47 557.33 A 55.73 55.73 0 0 1 167.2 501.6 L 111.47 557.33 A 55.73 55.73 0 0 0 167.2 501.6"/><path fill="#a6efa6" d="M 167.2 501.6 A 55.73 55.73 0 0 1 222.92999999999998 557.33 L 167.2 501.6 A 55.73 55.73 0 0 0 222.92999999999998 557.33"/><path fill="#1fa51f" d="M 278.67 557.33 A 55.73 55.73 0 0 1 334.40000000000003 501.6 L 278.67 557.33 A 55.73 55.73 0 0 0 334.40000000000003 501.6"/><path fill="#d8f8d8" d="M 445.87 501.6 A 55.73 55.73 0 0 1 501.6 557.33 L 445.87 501.6 A 55.73 55.73 0 0 0 501.6 557.33"/><path fill="#9bd79b" d="M 501.6 501.6 A 55.73 55.73 0 0 1 557.33 557.33 L 501.6 501.6 A 55.73 55.73 0 0 0 557.33 557.33"/><path fill="#5ee15e" d="M 613.07 501.6 A 55.73 55.73 0 0 1 668.8000000000001 557.33 L 613.07 501.6 A 55.73 55.73 0 0 0 668.8000000000001 557.33"/><path fill="#2fd92f" d="M 668.8 501.6 A 55.73 55.73 0 0 1 724.53 557.33 L 668.8 501.6 A 55.73 55.73 0 0 0 724.53 557.33"/><path fill="#ada" d="M 724.53 501.6 A 55.73 55.73 0 0 1 780.26 557.33 L 724.53 501.6 A 55.73 55.73 0 0 0 780.26 557.33"/><path fill="#77e677" d="M 780.27 557.33 A 55.73 55.73 0 0 1 836 501.6 L 780.27 557.33 A 55.73 55.73 0 0 0 836 501.6"/><path fill="#acdeac" d="M 836 501.6 A 55.73 55.73 0 0 1 891.73 557.33 L 836 501.6 A 55.73 55.73 0 0 0 891.73 557.33"/><path fill="#f0f9f0" d="M 891.73 501.6 A 55.73 55.73 0 0 1 947.46 557.33 L 891.73 501.6 A 55.73 55.73 0 0 0 947.46 557.33"/><path fill="#9ed89e" d="M 947.47 557.33 A 55.73 55.73 0 0 1 1003.2 501.6 L 947.47 557.33 A 55.73 55.73 0 0 0 1003.2 501.6"/><path fill="#e6f5e6" d="M 1003.2 557.33 A 55.73 55.73 0 0 1 1058.93 501.6 L 1003.2 557.33 A 55.73 55.73 0 0 0 1058.93 501.6"/><path fill="#b7e2b7" d="M 1058.93 501.6 A 55.73 55.73 0 0 1 1114.66 557.33 L 1058.93 501.6 A 55.73 55.73 0 0 0 1114.66 557.33"/><path fill="#11a011" d="M 1114.67 501.6 A 55.73 55.73 0 0 1 1170.4 557.33 L 1114.67 501.6 A 55.73 55.73 0 0 0 1170.4 557.33"/></g></svg>